{
    "asset" : {
        "extensions" : {
            "ASOBO_normal_map_convention" : {
                "tangent_space_convention" : "DirectX"
            }
        },
        "generator" : "Extended Khronos glTF Blender I/O v1.0.0",
        "version" : "2.0"
    },
    "extensionsUsed" : [
        "ASOBO_normal_map_convention"
    ],
    "scene" : 0,
    "scenes" : [
        {
            "name" : "Scene",
            "nodes" : [
                0
            ]
        }
    ],
    "nodes" : [
        {
            "mesh" : 0,
            "name" : "Cube"
        }
    ],
    "materials" : [
        {
            "emissiveFactor" : [
                0,
                0,
                0
            ],
            "name" : "Walls",
            "pbrMetallicRoughness" : {
                "baseColorFactor" : [
                    0.5279912948608398,
                    0,
                    0.5925794243812561,
                    1
                ],
                "metallicFactor" : 0,
                "roughnessFactor" : 0.5
            }
        },
        {
            "emissiveFactor" : [
                0,
                0,
                0
            ],
            "name" : "Doors",
            "pbrMetallicRoughness" : {
                "baseColorFactor" : [
                    0.05656112730503082,
                    1,
                    0.0891113355755806,
                    1
                ],
                "metallicFactor" : 0,
                "roughnessFactor" : 0.5
            }
        },
        {
            "emissiveFactor" : [
                0,
                0,
                0
            ],
            "name" : "Edge",
            "pbrMetallicRoughness" : {
                "baseColorFactor" : [
                    1,
                    0.004422395024448633,
                    0,
                    1
                ],
                "metallicFactor" : 0,
                "roughnessFactor" : 0.5
            }
        },
        {
            "emissiveFactor" : [
                0,
                0,
                0
            ],
            "name" : "Roof",
            "pbrMetallicRoughness" : {
                "baseColorFactor" : [
                    0,
                    0.0052473535761237144,
                    1,
                    1
                ],
                "metallicFactor" : 0,
                "roughnessFactor" : 0.5
            }
        },
        {
            "emissiveFactor" : [
                0,
                0,
                0
            ],
            "name" : "Glass",
            "pbrMetallicRoughness" : {
                "baseColorFactor" : [
                    1,
                    0.8956696391105652,
                    0,
                    1
                ],
                "metallicFactor" : 0,
                "roughnessFactor" : 0.5
            }
        }
    ],
    "meshes" : [
        {
            "name" : "Cube.002",
            "primitives" : [
                {
                    "attributes" : {
                        "POSITION" : 0,
                        "NORMAL" : 1,
                        "TEXCOORD_0" : 2
                    },
                    "indices" : 3,
                    "material" : 0
                },
                {
                    "attributes" : {
                        "POSITION" : 4,
                        "NORMAL" : 5,
                        "TEXCOORD_0" : 6
                    },
                    "indices" : 7,
                    "material" : 1
                },
                {
                    "attributes" : {
                        "POSITION" : 8,
                        "NORMAL" : 9,
                        "TEXCOORD_0" : 10
                    },
                    "indices" : 11,
                    "material" : 2
                },
                {
                    "attributes" : {
                        "POSITION" : 12,
                        "NORMAL" : 13,
                        "TEXCOORD_0" : 14
                    },
                    "indices" : 15,
                    "material" : 3
                },
                {
                    "attributes" : {
                        "POSITION" : 16,
                        "NORMAL" : 17,
                        "TEXCOORD_0" : 18
                    },
                    "indices" : 19,
                    "material" : 4
                }
            ]
        }
    ],
    "accessors" : [
        {
            "bufferView" : 0,
            "componentType" : 5126,
            "count" : 226,
            "max" : [
                35.00550079345703,
                6.369130611419678,
                15
            ],
            "min" : [
                -35.00550079345703,
                0.11816549301147461,
                -15
            ],
            "type" : "VEC3"
        },
        {
            "bufferView" : 1,
            "componentType" : 5126,
            "count" : 226,
            "type" : "VEC3"
        },
        {
            "bufferView" : 2,
            "componentType" : 5126,
            "count" : 226,
            "type" : "VEC2"
        },
        {
            "bufferView" : 3,
            "componentType" : 5123,
            "count" : 819,
            "type" : "SCALAR"
        },
        {
            "bufferView" : 4,
            "componentType" : 5126,
            "count" : 72,
            "max" : [
                34.61655044555664,
                5.1189374923706055,
                14.699999809265137
            ],
            "min" : [
                -34.6359977722168,
                0.11816549301147461,
                -14.699999809265137
            ],
            "type" : "VEC3"
        },
        {
            "bufferView" : 5,
            "componentType" : 5126,
            "count" : 72,
            "type" : "VEC3"
        },
        {
            "bufferView" : 6,
            "componentType" : 5126,
            "count" : 72,
            "type" : "VEC2"
        },
        {
            "bufferView" : 7,
            "componentType" : 5123,
            "count" : 108,
            "type" : "SCALAR"
        },
        {
            "bufferView" : 8,
            "componentType" : 5126,
            "count" : 202,
            "max" : [
                35.50550079345703,
                8.12568473815918,
                15.5
            ],
            "min" : [
                -35.50550079345703,
                6.240939617156982,
                -15.5
            ],
            "type" : "VEC3"
        },
        {
            "bufferView" : 9,
            "componentType" : 5126,
            "count" : 202,
            "type" : "VEC3"
        },
        {
            "bufferView" : 10,
            "componentType" : 5126,
            "count" : 202,
            "type" : "VEC2"
        },
        {
            "bufferView" : 11,
            "componentType" : 5123,
            "count" : 732,
            "type" : "SCALAR"
        },
        {
            "bufferView" : 12,
            "componentType" : 5126,
            "count" : 124,
            "max" : [
                35.50550079345703,
                8.12568473815918,
                15.5
            ],
            "min" : [
                -35.50550079345703,
                6.738107204437256,
                -15.5
            ],
            "type" : "VEC3"
        },
        {
            "bufferView" : 13,
            "componentType" : 5126,
            "count" : 124,
            "type" : "VEC3"
        },
        {
            "bufferView" : 14,
            "componentType" : 5126,
            "count" : 124,
            "type" : "VEC2"
        },
        {
            "bufferView" : 15,
            "componentType" : 5123,
            "count" : 432,
            "type" : "SCALAR"
        },
        {
            "bufferView" : 16,
            "componentType" : 5126,
            "count" : 46,
            "max" : [
                35.00550079345703,
                7.628516674041748,
                15
            ],
            "min" : [
                -35.00550079345703,
                6.369130611419678,
                -15
            ],
            "type" : "VEC3"
        },
        {
            "bufferView" : 17,
            "componentType" : 5126,
            "count" : 46,
            "type" : "VEC3"
        },
        {
            "bufferView" : 18,
            "componentType" : 5126,
            "count" : 46,
            "type" : "VEC2"
        },
        {
            "bufferView" : 19,
            "componentType" : 5123,
            "count" : 126,
            "type" : "SCALAR"
        }
    ],
    "bufferViews" : [
        {
            "buffer" : 0,
            "byteLength" : 2712,
            "byteOffset" : 0
        },
        {
            "buffer" : 0,
            "byteLength" : 2712,
            "byteOffset" : 2712
        },
        {
            "buffer" : 0,
            "byteLength" : 1808,
            "byteOffset" : 5424
        },
        {
            "buffer" : 0,
            "byteLength" : 1638,
            "byteOffset" : 7232
        },
        {
            "buffer" : 0,
            "byteLength" : 864,
            "byteOffset" : 8872
        },
        {
            "buffer" : 0,
            "byteLength" : 864,
            "byteOffset" : 9736
        },
        {
            "buffer" : 0,
            "byteLength" : 576,
            "byteOffset" : 10600
        },
        {
            "buffer" : 0,
            "byteLength" : 216,
            "byteOffset" : 11176
        },
        {
            "buffer" : 0,
            "byteLength" : 2424,
            "byteOffset" : 11392
        },
        {
            "buffer" : 0,
            "byteLength" : 2424,
            "byteOffset" : 13816
        },
        {
            "buffer" : 0,
            "byteLength" : 1616,
            "byteOffset" : 16240
        },
        {
            "buffer" : 0,
            "byteLength" : 1464,
            "byteOffset" : 17856
        },
        {
            "buffer" : 0,
            "byteLength" : 1488,
            "byteOffset" : 19320
        },
        {
            "buffer" : 0,
            "byteLength" : 1488,
            "byteOffset" : 20808
        },
        {
            "buffer" : 0,
            "byteLength" : 992,
            "byteOffset" : 22296
        },
        {
            "buffer" : 0,
            "byteLength" : 864,
            "byteOffset" : 23288
        },
        {
            "buffer" : 0,
            "byteLength" : 552,
            "byteOffset" : 24152
        },
        {
            "buffer" : 0,
            "byteLength" : 552,
            "byteOffset" : 24704
        },
        {
            "buffer" : 0,
            "byteLength" : 368,
            "byteOffset" : 25256
        },
        {
            "buffer" : 0,
            "byteLength" : 252,
            "byteOffset" : 25624
        }
    ],
    "buffers" : [
        {
            "byteLength" : 25876,
            "uri" : "EpkkTripleHangar.bin"
        }
    ]
}
