{
    "asset" : {
        "extensions" : {
            "ASOBO_normal_map_convention" : {
                "tangent_space_convention" : "DirectX"
            }
        },
        "generator" : "Extended Khronos glTF Blender I/O v1.0.0",
        "version" : "2.0"
    },
    "extensionsUsed" : [
        "ASOBO_normal_map_convention"
    ],
    "scene" : 0,
    "scenes" : [
        {
            "name" : "Scene",
            "nodes" : [
                0
            ]
        }
    ],
    "nodes" : [
        {
            "mesh" : 0,
            "name" : "Cube",
            "translation" : [
                0,
                1.0980546474456787,
                0
            ]
        }
    ],
    "materials" : [
        {
            "emissiveFactor" : [
                0,
                0,
                0
            ],
            "name" : "Window",
            "pbrMetallicRoughness" : {
                "baseColorTexture" : {
                    "index" : 0,
                    "texCoord" : 0
                },
                "metallicFactor" : 0,
                "roughnessFactor" : 0.5
            }
        },
        {
            "emissiveFactor" : [
                0,
                0,
                0
            ],
            "name" : "Walls",
            "pbrMetallicRoughness" : {
                "baseColorTexture" : {
                    "index" : 1,
                    "texCoord" : 0
                },
                "metallicFactor" : 0,
                "roughnessFactor" : 0.5
            }
        },
        {
            "emissiveFactor" : [
                0,
                0,
                0
            ],
            "name" : "Roof",
            "pbrMetallicRoughness" : {
                "baseColorTexture" : {
                    "index" : 2,
                    "texCoord" : 0
                },
                "metallicFactor" : 0,
                "roughnessFactor" : 0.5
            }
        },
        {
            "emissiveFactor" : [
                0,
                0,
                0
            ],
            "name" : "Dark walls",
            "pbrMetallicRoughness" : {
                "baseColorTexture" : {
                    "index" : 3,
                    "texCoord" : 0
                },
                "metallicFactor" : 0,
                "roughnessFactor" : 0.5
            }
        },
        {
            "emissiveFactor" : [
                0,
                0,
                0
            ],
            "name" : "Roof wall",
            "pbrMetallicRoughness" : {
                "baseColorTexture" : {
                    "index" : 4,
                    "texCoord" : 0
                },
                "metallicFactor" : 0,
                "roughnessFactor" : 0.5
            }
        },
        {
            "emissiveFactor" : [
                0,
                0,
                0
            ],
            "name" : "Side window",
            "pbrMetallicRoughness" : {
                "baseColorTexture" : {
                    "index" : 5,
                    "texCoord" : 0
                },
                "metallicFactor" : 0,
                "roughnessFactor" : 0.5
            }
        }
    ],
    "meshes" : [
        {
            "name" : "Cube",
            "primitives" : [
                {
                    "attributes" : {
                        "POSITION" : 0,
                        "NORMAL" : 1,
                        "TEXCOORD_0" : 2
                    },
                    "indices" : 3,
                    "material" : 0
                },
                {
                    "attributes" : {
                        "POSITION" : 4,
                        "NORMAL" : 5,
                        "TEXCOORD_0" : 6
                    },
                    "indices" : 7,
                    "material" : 1
                },
                {
                    "attributes" : {
                        "POSITION" : 8,
                        "NORMAL" : 9,
                        "TEXCOORD_0" : 10
                    },
                    "indices" : 11,
                    "material" : 2
                },
                {
                    "attributes" : {
                        "POSITION" : 12,
                        "NORMAL" : 13,
                        "TEXCOORD_0" : 14
                    },
                    "indices" : 15,
                    "material" : 3
                },
                {
                    "attributes" : {
                        "POSITION" : 16,
                        "NORMAL" : 17,
                        "TEXCOORD_0" : 18
                    },
                    "indices" : 19,
                    "material" : 4
                },
                {
                    "attributes" : {
                        "POSITION" : 20,
                        "NORMAL" : 21,
                        "TEXCOORD_0" : 22
                    },
                    "indices" : 23,
                    "material" : 5
                }
            ]
        }
    ],
    "textures" : [
        {
            "source" : 0
        },
        {
            "source" : 0
        },
        {
            "source" : 0
        },
        {
            "source" : 0
        },
        {
            "source" : 0
        },
        {
            "source" : 0
        }
    ],
    "images" : [
        {
            "mimeType" : "image/png",
            "name" : "EpkkAdministrationBuilding",
            "uri" : "EpkkAdministrationBuilding.png"
        }
    ],
    "accessors" : [
        {
            "bufferView" : 0,
            "componentType" : 5126,
            "count" : 254,
            "max" : [
                62.58442687988281,
                13.828777313232422,
                7.75586462020874
            ],
            "min" : [
                -168.0386962890625,
                -0.9883842468261719,
                -26.839977264404297
            ],
            "type" : "VEC3"
        },
        {
            "bufferView" : 1,
            "componentType" : 5126,
            "count" : 254,
            "type" : "VEC3"
        },
        {
            "bufferView" : 2,
            "componentType" : 5126,
            "count" : 254,
            "type" : "VEC2"
        },
        {
            "bufferView" : 3,
            "componentType" : 5123,
            "count" : 684,
            "type" : "SCALAR"
        },
        {
            "bufferView" : 4,
            "componentType" : 5126,
            "count" : 446,
            "max" : [
                62.58442687988281,
                9.031843185424805,
                4.252026557922363
            ],
            "min" : [
                -168.0386962890625,
                -0.9883842468261719,
                -26.839977264404297
            ],
            "type" : "VEC3"
        },
        {
            "bufferView" : 5,
            "componentType" : 5126,
            "count" : 446,
            "type" : "VEC3"
        },
        {
            "bufferView" : 6,
            "componentType" : 5126,
            "count" : 446,
            "type" : "VEC2"
        },
        {
            "bufferView" : 7,
            "componentType" : 5123,
            "count" : 1416,
            "type" : "SCALAR"
        },
        {
            "bufferView" : 8,
            "componentType" : 5126,
            "count" : 85,
            "max" : [
                62.37360382080078,
                15.897724151611328,
                7.387622833251953
            ],
            "min" : [
                -167.81491088867188,
                8.811504364013672,
                -26.61745262145996
            ],
            "type" : "VEC3"
        },
        {
            "bufferView" : 9,
            "componentType" : 5126,
            "count" : 85,
            "type" : "VEC3"
        },
        {
            "bufferView" : 10,
            "componentType" : 5126,
            "count" : 85,
            "type" : "VEC2"
        },
        {
            "bufferView" : 11,
            "componentType" : 5123,
            "count" : 300,
            "type" : "SCALAR"
        },
        {
            "bufferView" : 12,
            "componentType" : 5126,
            "count" : 166,
            "max" : [
                -32.4460334777832,
                16.227243423461914,
                7.75586462020874
            ],
            "min" : [
                -91.9652099609375,
                -0.9786186218261719,
                -4.252026557922363
            ],
            "type" : "VEC3"
        },
        {
            "bufferView" : 13,
            "componentType" : 5126,
            "count" : 166,
            "type" : "VEC3"
        },
        {
            "bufferView" : 14,
            "componentType" : 5126,
            "count" : 166,
            "type" : "VEC2"
        },
        {
            "bufferView" : 15,
            "componentType" : 5123,
            "count" : 534,
            "type" : "SCALAR"
        },
        {
            "bufferView" : 16,
            "componentType" : 5126,
            "count" : 316,
            "max" : [
                62.58442687988281,
                16.227243423461914,
                7.75586462020874
            ],
            "min" : [
                -168.0386962890625,
                8.811504364013672,
                -26.839977264404297
            ],
            "type" : "VEC3"
        },
        {
            "bufferView" : 17,
            "componentType" : 5126,
            "count" : 316,
            "type" : "VEC3"
        },
        {
            "bufferView" : 18,
            "componentType" : 5126,
            "count" : 316,
            "type" : "VEC2"
        },
        {
            "bufferView" : 19,
            "componentType" : 5123,
            "count" : 768,
            "type" : "SCALAR"
        },
        {
            "bufferView" : 20,
            "componentType" : 5126,
            "count" : 48,
            "max" : [
                62.58442687988281,
                8.823984146118164,
                4.252026557922363
            ],
            "min" : [
                -168.0386962890625,
                -0.9883842468261719,
                -25.449783325195312
            ],
            "type" : "VEC3"
        },
        {
            "bufferView" : 21,
            "componentType" : 5126,
            "count" : 48,
            "type" : "VEC3"
        },
        {
            "bufferView" : 22,
            "componentType" : 5126,
            "count" : 48,
            "type" : "VEC2"
        },
        {
            "bufferView" : 23,
            "componentType" : 5123,
            "count" : 180,
            "type" : "SCALAR"
        }
    ],
    "bufferViews" : [
        {
            "buffer" : 0,
            "byteLength" : 3048,
            "byteOffset" : 0
        },
        {
            "buffer" : 0,
            "byteLength" : 3048,
            "byteOffset" : 3048
        },
        {
            "buffer" : 0,
            "byteLength" : 2032,
            "byteOffset" : 6096
        },
        {
            "buffer" : 0,
            "byteLength" : 1368,
            "byteOffset" : 8128
        },
        {
            "buffer" : 0,
            "byteLength" : 5352,
            "byteOffset" : 9496
        },
        {
            "buffer" : 0,
            "byteLength" : 5352,
            "byteOffset" : 14848
        },
        {
            "buffer" : 0,
            "byteLength" : 3568,
            "byteOffset" : 20200
        },
        {
            "buffer" : 0,
            "byteLength" : 2832,
            "byteOffset" : 23768
        },
        {
            "buffer" : 0,
            "byteLength" : 1020,
            "byteOffset" : 26600
        },
        {
            "buffer" : 0,
            "byteLength" : 1020,
            "byteOffset" : 27620
        },
        {
            "buffer" : 0,
            "byteLength" : 680,
            "byteOffset" : 28640
        },
        {
            "buffer" : 0,
            "byteLength" : 600,
            "byteOffset" : 29320
        },
        {
            "buffer" : 0,
            "byteLength" : 1992,
            "byteOffset" : 29920
        },
        {
            "buffer" : 0,
            "byteLength" : 1992,
            "byteOffset" : 31912
        },
        {
            "buffer" : 0,
            "byteLength" : 1328,
            "byteOffset" : 33904
        },
        {
            "buffer" : 0,
            "byteLength" : 1068,
            "byteOffset" : 35232
        },
        {
            "buffer" : 0,
            "byteLength" : 3792,
            "byteOffset" : 36300
        },
        {
            "buffer" : 0,
            "byteLength" : 3792,
            "byteOffset" : 40092
        },
        {
            "buffer" : 0,
            "byteLength" : 2528,
            "byteOffset" : 43884
        },
        {
            "buffer" : 0,
            "byteLength" : 1536,
            "byteOffset" : 46412
        },
        {
            "buffer" : 0,
            "byteLength" : 576,
            "byteOffset" : 47948
        },
        {
            "buffer" : 0,
            "byteLength" : 576,
            "byteOffset" : 48524
        },
        {
            "buffer" : 0,
            "byteLength" : 384,
            "byteOffset" : 49100
        },
        {
            "buffer" : 0,
            "byteLength" : 360,
            "byteOffset" : 49484
        }
    ],
    "buffers" : [
        {
            "byteLength" : 49844,
            "uri" : "EpkkAdministrationBuilding.bin"
        }
    ]
}
